#!OML:ASF F:\VICON\USERDATA\INSTALL\rory3\rory3.ASF
:FULLY-SPECIFIED
:DEGREES
54
root 0.46802923851286865 17.757581460390046 17.147280336364716 -2.1920653994649975 -4.794541993901866 -4.570840855746514
lfemur -24.166698178610197 -3.057041132822853 -14.21033573344453
ltibia 34.967862241336576
lfoot -4.168084068358098 -0.40410821826543203
ltoes -4.296508528970611
rfemur 5.761831698258263 4.646954265602124 29.78966860811264
rtibia 40.36550825331267
rfoot -4.058967959437522 -2.920126739633081
rtoes 1.6382461114932592
lowerback 9.264366990844366 2.347456648421487 3.978430720481362
upperback 0.16135260085040512 4.108994488889362 1.5641049683280193
thorax -4.944395703897949 1.5328745227114016 -1.4913343904475735
lowerneck -16.565873841674346 -2.705885986097657 -2.009337119671768
upperneck 20.89976595781415 -3.473337748224273 1.1697186657860583
head 9.343472359377822 -1.7486356497856514 0.19349531678984405
lclavicle -1.9523119759906425e-15 9.076245049037613e-16
lhumerus -38.56642135955664 10.357396754898895 79.74319666575316
lradius 19.86198269605911
lwrist 1.312451787266562
lhand -27.34858807057493 22.81165984219355
lfingers 7.12502
lthumb -0.5343843306385789 53.50664722322871
rclavicle -1.954209401951245e-15 9.058769950143125e-16
rhumerus -25.294941002276524 -15.251434066096849 -80.90070335226399
rradius 26.48994159574916
rwrist 3.5220339737501543
rhand -17.842262948592868 22.6520290283604
rfingers 7.12502
rthumb 8.324993575915068 -7.271154030332192
55
root 0.5487756973661028 17.79817928852089 18.361006687738556 -2.8031515654044843 -4.953130944393136 -3.139533699393123
lfemur -22.06827483412157 -2.02171911032407 -16.458204161795734
ltibia 36.277210448497215
lfoot -4.511519292623529 -0.2343517242075699
ltoes -4.575010313838178
rfemur 3.1844859329275454 3.795096428326335 27.97774348457771
rtibia 45.33025243060075
rfoot -2.3545472987473417 -2.918493541525395
rtoes 2.3377769951800333
lowerback 9.438337460995928 2.2548933852780384 2.951394122053083
upperback 0.20610367431955678 3.9648730859179535 1.2855944147481144
thorax -4.970102390547842 1.4722021050215148 -1.0825070447748781
lowerneck -16.515658117642506 -2.738325389578732 -1.9611904329804521
upperneck 20.94458458533421 -3.5021774705051043 1.1994622546394615
head 9.317325658993383 -1.7748676328757467 0.19768224635256665
lclavicle -1.9523119757182535e-15 9.076245051546289e-16
lhumerus -38.780307674358696 10.51211782038572 79.51177536134168
lradius 20.294513420594892
lwrist 1.8442071337680184
lhand -27.31772086192247 22.887166347876747
lfingers 7.12502
lthumb -0.5188670300870276 53.53471512677848
rclavicle -1.9542094016810397e-15 9.058769952631687e-16
rhumerus -25.936468462714952 -16.414160362323837 -80.84497535343574
rradius 26.416708482822507
rwrist 4.192652666396713
rhand -17.79201429723866 22.75434141980124
rfingers 7.12502
rthumb 8.351712090289585 -7.250707113589954
56
root 0.6128829407710027 17.845240460926824 19.130328691017517 -3.250974929328768 -5.351304645128051 -1.8282384968482064
lfemur -19.35807807567842 -1.7199805065916762 -19.488855294882924
ltibia 36.15762959609339
lfoot -5.785982959639324 -0.20408598935919808
ltoes -4.316507885459082
rfemur -0.704962585481594 2.963612817560498 25.99581285950922
rtibia 49.65061307664001
rfoot -1.3854773354131362 -3.295634925120652
rtoes 2.780331732686941
lowerback 9.641667912173284 2.095518831752491 1.89052963717091
upperback 0.2766773960040529 3.717589316606384 0.9830807253985454
thorax -4.9941626543859305 1.3770620711923467 -0.7202862024864712
lowerneck -16.463656207500758 -2.768063996546231 -1.9175219904903695
upperneck 20.945227718689065 -3.519290516326864 1.1993999119316698
head 9.314926279317206 -1.7853771643755556 0.21872349754250914
lclavicle -1.952311975691871e-15 9.076245051789272e-16
lhumerus -38.80915168710693 10.021719567851845 79.59764219923396
lradius 20.841039459514548
lwrist 2.3162266505433036
lhand -27.32676158801261 22.848358037405394
lfingers 7.12502
lthumb -0.5574026798318088 53.423816755741925
rclavicle -1.954209401704814e-15 9.058769952412729e-16
rhumerus -26.284111326230228 -17.29216148878383 -80.88312094389211
rradius 26.376806505939307
rwrist 4.935088392780458
rhand -17.78639622831782 22.762254551445825
rfingers 7.12502
rthumb 8.362721571721904 -7.241909594727711
57
root 0.65747462061804 17.892474257717364 19.755778801096753 -3.5667013113788357 -5.643504232590142 -0.8700401127233697
lfemur -16.174572341719703 -1.9564785844300425 -21.488541678053853
ltibia 34.908398652862566
lfoot -6.103984036822088 0.6351600993786854
ltoes -4.486253415773494
rfemur -4.73779083625465 2.1389501290907638 24.363571056497264
rtibia 52.719696310167194
rfoot -1.4539222723474383 -4.096577603036376
rtoes 3.8285456085634224
lowerback 9.860382150991462 1.8773634304781246 1.1374239649605893
upperback 0.34663274695801966 3.3509131016765097 0.7267196891427743
thorax -5.013983876868454 1.2520348119712044 -0.32232259929408313
lowerneck -16.466935547436005 -2.807963854200834 -1.9104142108557223
upperneck 20.945971363042695 -3.5001839642407018 1.2355405624786275
head 9.289220168395575 -1.7962296074091055 0.21718028592730365
lclavicle -1.95231197595557e-15 9.076245049360627e-16
lhumerus -38.437974847842845 9.097492890731404 79.94888475734506
lradius 21.424759553858795
lwrist 2.6438017468982786
lhand -27.26445090189015 22.993744398816695
lfingers 7.12502
lthumb -0.5167494515864939 53.499065531110716
rclavicle -1.954209401593412e-15 9.058769953438731e-16
rhumerus -26.721574605436334 -18.27021218099859 -80.75485373978681
rradius 26.41163791963208
rwrist 5.359090645903439
rhand -17.7943292793711 22.690829957370667
rfingers 7.12502
rthumb 8.370384368173326 -7.252780541846295
58
root 0.6836944466764879 17.929641102448198 20.52697480098979 -3.7979845193775277 -5.556932079727453 -0.304411942277528
lfemur -12.920301377026224 -2.14598872444049 -22.434412894140287
ltibia 33.62624691421857
lfoot -6.005721573628984 1.3553039992135336
ltoes -4.562426525559918
rfemur -9.3189410415669 1.3476467194423778 23.00087354263202
rtibia 54.476159370693345
rfoot -2.3655069289920734 -5.046992981940887
rtoes 4.853434327642696
lowerback 10.043546401703248 1.5676860930175336 0.5526058351547835
upperback 0.421571407017274 2.8861089793614685 0.5800938016642674
thorax -5.033971001001676 1.074545496189776 -0.0018686218636884133
lowerneck -16.438018556458868 -2.817438060333948 -1.84242658941921
upperneck 20.850682276723948 -3.4947077596625555 1.207395047678265
head 9.28404022522383 -1.7929827720556109 0.2291285168738621
lclavicle -1.952311975811236e-15 9.076245050689927e-16
lhumerus -37.668501921597944 7.79307841842618 80.44375079301797
lradius 21.997084889912607
lwrist 3.0696636930169108
lhand -27.242503092710837 23.007502156267208
lfingers 7.12502
lthumb -0.5086910404305289 53.47779339401395
rclavicle -1.9542094016353563e-15 9.058769953052428e-16
rhumerus -27.358475863698658 -18.941902716928947 -80.42254035856615
rradius 26.538899198264268
rwrist 5.4971613473895555
rhand -17.789015583789517 22.650905493396206
rfingers 7.12502
rthumb 8.394693475983507 -7.238524749778125
